<?xml version="1.0" encoding="UTF-8"?>
<svg width="169px" height="61px" viewBox="0 0 169 61" version="1.1" xmlns="http://www.w3.org/2000/svg" xmlns:xlink="http://www.w3.org/1999/xlink">
    <!-- Generator: Sketch 62 (91390) - https://sketch.com -->
    <title>Group 26</title>
    <desc>Created with Sketch.</desc>
    <g id="Page-1" stroke="none" stroke-width="1" fill="none" fill-rule="evenodd">
        <g id="Logo" transform="translate(-394.000000, -1499.000000)">
            <g id="Group-30" transform="translate(338.000000, 1191.000000)">
                <g id="Group-26" transform="translate(56.000000, 308.000000)">
                    <polygon id="Fill-311" fill="#EC952D" points="0 57.96 0 60.48 116.591107 60.48 118.44 57.96"></polygon>
                    <path d="M134.020451,55.44 C134.020451,55.44 142.102315,43.2278721 142.831899,42.0246339 C143.722451,40.5464906 143.76217,38.1971098 142.96151,36.9367759 C142.553863,36.2770038 130.502143,16.9998163 130.502143,16.9998163 C129.421355,14.9168819 129.691029,13.4937196 130.414342,12.4786856 C131.601744,10.7044908 133.694333,7.56 133.694333,7.56 C133.694333,7.56 148.325727,30.7789029 148.934062,31.8108542 C150.504026,34.4605159 150.069203,37.0573112 148.775184,39.2776981 C147.692306,41.1533963 138.211899,55.44 138.211899,55.44 L134.020451,55.44 Z" id="Fill-312" fill="#EC952D"></path>
                    <path d="M131.167952,56.5990535 C131.167952,56.5990535 140.513361,42.8954421 141.207007,41.7594022 C142.02392,40.374396 141.934081,38.4203238 141.207007,37.2403487 C140.818398,36.6168867 127.837619,16.1598007 127.837619,16.1598007 C127.837619,16.1598007 125.537307,19.6390535 124.808143,20.7144209 C124.083159,21.785604 123.654854,23.1162142 124.900072,25.2606725 C124.900072,25.2606725 134.193249,39.953873 134.583947,40.5752428 C135.34445,41.7740473 135.308932,43.9749938 134.462768,45.3620922 C133.769122,46.4834869 124.183445,60.48 124.183445,60.48 L151.843599,60.48 C154.655788,60.48 156.199775,59.3878954 157.557816,57.4296389 C158.734088,55.7663761 163.286658,49.1426152 163.980304,48.1049066 C164.67186,47.0651059 166.059151,46.3726027 166.675492,46.3726027 L168.84,46.3726027 L164.619628,39.9455044 L157.892103,39.9455044 C156.605098,39.9455044 155.050664,41.0899128 154.237929,42.2991781 C153.598605,43.2552927 148.995892,50.1594022 148.166443,51.2703362 C147.696352,51.8958904 147.293118,52.0360648 146.919135,52.0360648 C146.714384,52.0381569 146.118935,52.0360648 146.043721,52.0360648 C146.317418,51.483736 154.047803,40.2195766 155.568809,37.7403736 C157.405298,34.6879203 157.821067,30.6563387 155.635666,26.7900374 C154.837556,25.3841096 138.770891,0 138.770891,0 C138.770891,0 136.631454,3.08592777 135.741415,4.40607721 C135.01852,5.48353674 134.797055,6.89364882 135.837523,8.95651308 C135.837523,8.95651308 149.321822,30.4345704 149.967414,31.4220672 C151.534383,33.8677958 151.335901,37.1399253 149.967414,39.372254 C148.845463,41.2091656 139.531393,55.2935492 139.531393,55.2935492 L146.912867,55.2935492 C149.585073,55.2935492 150.241111,54.2997758 150.978631,53.475467 C151.716152,52.6511582 155.731774,46.5546202 156.18724,45.9102366 C156.648974,45.2763138 157.821067,43.477061 159.360876,43.477061 L164.212215,43.477061 L164.212215,43.6172354 C163.178015,43.8264508 162.160529,44.4499128 161.420919,45.4646077 C160.683399,46.4646575 155.811167,53.6909589 155.221986,54.5340971 C154.484466,55.5948194 153.640391,56.5990535 151.521848,56.5990535 L131.167952,56.5990535 Z" id="Fill-313" fill="#EC952D"></path>
                    <polygon id="Fill-314" fill="#0C1B44" points="69.3 39.69 71.82 39.69 71.82 51.66 69.3 51.66"></polygon>
                    <polygon id="Fill-315" fill="#0C1B44" points="67.41 51.66 67.41 49.4708522 61.2476192 49.4708522 61.2476192 39.69 58.59 39.69 58.59 51.66 61.2476192 51.66"></polygon>
                    <path d="M29.2960535,41.7549509 L31.2008027,46.0800158 L27.4018395,46.0884099 L29.2960535,41.7549509 Z M26.5021405,48.1848387 L32.1026087,48.1911343 L33.659699,51.66 L36.54,51.66 L30.6550836,39.69 L27.9328094,39.69 L22.05,51.66 L24.9513712,51.66 L26.5021405,48.1848387 Z" id="Fill-316" fill="#0C1B44"></path>
                    <path d="M47.977508,41.8791478 L52.1544728,41.8791478 C53.1317891,41.8791478 53.7500479,42.8068595 53.7500479,43.6443188 C53.7500479,44.4775802 53.1317891,45.3780063 52.1544728,45.3780063 L48.8868371,45.3780063 L54.1792173,51.66 L57.33,51.66 L53.5758307,47.1956497 L53.5822045,47.1956497 C55.196901,46.6793214 56.2337061,45.2184903 56.2337061,43.5666597 C56.2337061,41.5034456 54.6211342,39.69 52.2692013,39.69 L45.36,39.69 L45.36,51.66 L47.977508,51.66 L47.977508,41.8791478 Z" id="Fill-317" fill="#0C1B44"></path>
                    <polygon id="Fill-318" fill="#0C1B44" points="38.43 39.69 40.95 39.69 40.95 51.66 38.43 51.66"></polygon>
                    <path d="M105.273841,46.8040077 L108.50154,46.8040077 C109.240508,46.8040077 109.741878,47.2488955 109.741878,48.1071932 C109.741878,48.9654909 109.240508,49.4124772 108.50154,49.4124772 L101.556853,49.4124772 L101.556853,51.66 L108.257902,51.66 C110.857377,51.66 112.14,49.8699562 112.14,48.05473 C112.14,46.2374053 110.857377,44.4683468 108.257902,44.4683468 C107.140389,44.4683468 105.012081,44.4725438 105.012081,44.4725438 C104.289222,44.4725438 103.805973,44.0402472 103.805973,43.2071318 C103.805973,42.371918 104.289222,41.9375228 105.012081,41.9375228 L111.968849,41.9375228 L111.968849,39.69 L105.273841,39.69 C102.698528,39.69 101.43,41.2722896 101.43,43.255398 C101.43,45.2364078 102.698528,46.8040077 105.273841,46.8040077" id="Fill-319" fill="#0C1B44"></path>
                    <polygon id="Fill-320" fill="#0C1B44" points="98.91 51.66 98.91 49.4708522 92.0454937 49.4708522 92.0454937 46.4043661 98.024191 46.4043661 98.024191 44.2299106 92.0454937 44.2299106 92.0454937 41.8770489 98.91 41.8791478 98.91 39.69 89.46 39.69 89.46 51.66 92.0454937 51.66"></polygon>
                    <path d="M77.73946,41.8770489 L82.3308748,41.8770489 C83.4554836,41.8770489 84.1749676,42.8488375 84.1749676,43.7534613 L84.1749676,51.66 L86.94,51.66 L86.94,43.419737 C86.94,41.3796107 85.4102663,39.69 82.9551655,39.69 L79.3223248,39.69 L77.73946,41.6839506 L77.73946,41.6776539 L77.73946,39.69 L74.97,39.69 L74.97,51.66 L77.73946,51.66 L77.73946,41.8770489 Z" id="Fill-321" fill="#0C1B44"></path>
                    <path d="M3.84384095,31.6840077 L7.07153976,31.6840077 C7.81252115,31.6840077 8.31187817,32.1288955 8.31187817,32.9871932 C8.31187817,33.8454909 7.81252115,34.2924772 7.07153976,34.2924772 L0.126852792,34.2924772 L0.126852792,36.54 L6.82790186,36.54 C9.42939086,36.54 10.71,34.7520547 10.71,32.93473 C10.71,31.1195039 9.42939086,29.3483468 6.82790186,29.3483468 C5.71038917,29.3483468 3.58208122,29.3525438 3.58208122,29.3525438 C2.86123519,29.3525438 2.37597293,28.9202472 2.37597293,28.0871318 C2.37597293,27.251918 2.86123519,26.8175228 3.58208122,26.8175228 L10.5388494,26.8175228 L10.5388494,24.57 L3.84384095,24.57 C1.27054146,24.57 -4.36095604e-13,26.1522896 -4.36095604e-13,28.135398 C-4.36095604e-13,30.1164078 1.27054146,31.6840077 3.84384095,31.6840077" id="Fill-322" fill="#0C1B44"></path>
                    <path d="M39.432656,36.54 L44.73,36.54 L44.73,28.7300105 L42.1271024,28.7300105 L42.1271024,34.2270174 L39.0768642,34.2270174 C36.8713715,34.2270174 35.3982687,32.9466912 35.3982687,30.4930826 C35.3982687,28.0247817 36.8713715,26.7570489 39.0768642,26.7570489 L44.73,26.7570489 L44.73,24.57 L39.432656,24.57 C34.9654928,24.57 32.76,27.8022988 32.76,30.5686428 C32.76,33.3307891 34.9654928,36.54 39.432656,36.54" id="Fill-323" fill="#0C1B44"></path>
                    <polygon id="Fill-324" fill="#0C1B44" points="13.86 24.57 16.38 24.57 16.38 36.54 13.86 36.54"></polygon>
                    <path d="M22.29946,26.7570489 L26.8908748,26.7570489 C28.0154836,26.7570489 28.7327538,27.7288375 28.7327538,28.6334613 L28.7327538,36.54 L31.5,36.54 L31.5,28.299737 C31.5,26.2596107 29.9680525,24.57 27.5129517,24.57 L23.8823248,24.57 L22.29946,26.5639506 L22.29946,26.5576539 L22.29946,24.57 L19.53,24.57 L19.53,36.54 L22.29946,36.54 L22.29946,26.7570489 Z" id="Fill-325" fill="#0C1B44"></path>
                    <path d="M92.077508,26.7591478 L96.2544728,26.7591478 C97.2317891,26.7591478 97.8500479,27.6868595 97.8500479,28.5243188 C97.8500479,29.3575802 97.2317891,30.2580063 96.2544728,30.2580063 L92.9868371,30.2580063 L98.2792173,36.54 L101.43,36.54 L97.6779553,32.0756497 L97.6822045,32.0756497 C99.296901,31.5593214 100.333706,30.1005892 100.333706,28.4466597 C100.333706,26.3834456 98.7211342,24.57 96.3692013,24.57 L89.46,24.57 L89.46,36.54 L92.077508,36.54 L92.077508,26.7591478 Z" id="Fill-326" fill="#0C1B44"></path>
                    <polygon id="Fill-327" fill="#0C1B44" points="111.51 36.54 111.51 34.3487533 104.643438 34.3529511 104.643438 31.286465 110.624191 31.286465 110.624191 29.1099106 104.643438 29.1099106 104.643438 26.7570489 111.51 26.7591478 111.51 24.57 102.06 24.57 102.06 36.54 104.643438 36.54"></polygon>
                    <path d="M53.235,26.6349509 L55.1421335,30.9600158 L51.3405105,30.9684099 L53.235,26.6349509 Z M50.4406806,33.0648387 L56.0440707,33.0711343 L57.5992801,36.54 L60.48,36.54 L54.5963351,24.57 L51.8736649,24.57 L45.99,36.54 L48.8896859,36.54 L50.4406806,33.0648387 Z" id="Fill-328" fill="#0C1B44"></path>
                    <path d="M65.0195929,26.7574325 L69.1035044,26.7574325 C70.072354,26.7574325 70.689469,27.7629797 70.689469,28.6677622 C70.689469,29.5704455 70.072354,30.5466029 69.1035044,30.5466029 L65.0195929,30.5466029 L65.0195929,26.7574325 Z M65.0195929,30.7313381 L65.0195929,30.7250403 L66.5234159,32.7172413 L69.2172389,32.7172413 C71.4813982,32.7172413 73.08,30.834202 73.08,28.6677622 C73.08,26.4887268 71.4813982,24.57 69.2172389,24.57 L62.37,24.57 L62.37,36.54 L65.0195929,36.54 L65.0195929,30.7313381 Z" id="Fill-329" fill="#0C1B44"></path>
                    <path d="M80.6379651,26.9087518 C82.8193605,26.9087518 84.595814,28.6846589 84.595814,30.8750798 C84.595814,33.0512772 82.8193605,34.8251524 80.6379651,34.8251524 C78.4463953,34.8251524 76.667907,33.0512772 76.667907,30.8750798 C76.667907,28.6846589 78.4463953,26.9087518 80.6379651,26.9087518 M80.6379651,37.17 C84.1135465,37.17 86.94,34.3456168 86.94,30.8750798 C86.94,27.3903193 84.1135465,24.57 80.6379651,24.57 C77.1522093,24.57 74.34,27.3903193 74.34,30.8750798 C74.34,34.3456168 77.1522093,37.17 80.6379651,37.17" id="Fill-330" fill="#0C1B44"></path>
                </g>
            </g>
        </g>
    </g>
</svg>